<?xml version="1.0" standalone="no"?>
<!DOCTYPE svg PUBLIC "-//W3C//DTD SVG 20010904//EN"
 "http://www.w3.org/TR/2001/REC-SVG-20010904/DTD/svg10.dtd">
<svg version="1.0" xmlns="http://www.w3.org/2000/svg"
 width="1200.000000pt" height="1297.000000pt" viewBox="0 0 1200.000000 1297.000000"
 preserveAspectRatio="xMidYMid meet">

<g transform="translate(0.000000,1297.000000) scale(0.100000,-0.100000)"
fill="#000000" stroke="none">
<path d="M5890 12954 c-753 -33 -1514 -191 -1546 -321 -12 -48 34 -71 191 -95
118 -18 623 -15 910 5 537 38 1190 62 2015 73 l495 7 -225 74 c-386 127 -490
152 -805 197 -335 48 -752 72 -1035 60z"/>
<path d="M3295 12236 c-328 -158 -1367 -1088 -1741 -1557 -585 -735 -1335
-2424 -1500 -3379 -44 -251 -43 -500 1 -500 23 0 96 83 233 265 74 99 178 224
231 279 291 298 786 609 1182 740 163 55 254 73 424 85 145 11 215 30 245 68
56 71 -8 158 -194 268 -295 174 -466 409 -539 745 -27 126 -29 355 -4 485 72
371 218 624 465 810 316 237 782 353 1537 385 299 12 1415 13 1415 1 0 -5 -22
-393 -50 -862 -66 -1141 -77 -1342 -95 -1759 -76 -1830 -43 -3329 85 -3831 72
-282 301 -675 486 -834 297 -255 608 -299 942 -131 554 278 805 909 873 2191
8 145 10 422 6 810 -7 715 -23 1043 -107 2095 -51 638 -66 842 -90 1245 -22
350 -37 914 -27 957 5 20 18 30 54 42 177 61 964 98 1633 78 713 -22 868 -55
1115 -240 215 -160 422 -395 528 -600 106 -204 140 -342 140 -562 0 -135 -3
-167 -26 -252 -50 -189 -142 -349 -286 -500 -130 -137 -261 -231 -600 -430
-35 -21 -40 -27 -25 -31 11 -3 208 -45 438 -92 848 -175 924 -213 1462 -735
326 -316 434 -404 478 -387 26 10 23 326 -5 460 -134 649 -549 1631 -1036
2450 -311 524 -551 834 -973 1258 -528 530 -1019 919 -1115 882 -22 -8 -37
-79 -30 -136 4 -28 25 -111 47 -186 61 -211 137 -513 144 -575 6 -46 4 -57
-10 -62 -23 -9 -104 42 -274 175 -494 384 -702 508 -996 590 -232 65 -390 80
-958 88 l-448 6 0 -64 c0 -95 58 -3432 70 -4029 30 -1511 76 -2882 110 -3275
9 -96 49 -325 85 -482 l5 -23 -525 0 c-319 0 -525 4 -525 9 0 5 16 173 35 373
19 200 39 440 45 533 30 509 74 1721 110 3080 10 371 90 3798 90 3850 l0 25
-287 0 c-680 -1 -981 -37 -1299 -155 -257 -97 -448 -219 -724 -464 -165 -146
-288 -224 -343 -219 -30 3 -32 6 -35 44 -5 72 37 242 128 514 49 146 96 302
105 347 17 85 17 144 0 150 -6 2 -42 -12 -80 -31z"/>
<path d="M7700 10498 c0 -262 -41 -3709 -50 -4238 -29 -1639 -81 -2140 -256
-2480 -86 -167 -177 -265 -439 -476 -268 -216 -280 -246 -153 -397 89 -105
131 -175 161 -264 65 -198 60 -460 -14 -763 -55 -219 -129 -418 -284 -759
-163 -360 -281 -673 -306 -815 -10 -58 -9 -70 8 -103 45 -92 162 -133 374
-133 529 0 1385 270 2119 670 1163 632 2040 1491 2576 2525 114 219 175 364
324 760 196 522 245 692 208 722 -29 25 -118 -35 -340 -230 -496 -435 -832
-612 -1381 -726 -372 -78 -708 -110 -1642 -161 -302 -16 -583 -32 -622 -35
l-73 -6 0 218 c1 320 7 335 140 341 83 4 105 2 440 -48 296 -43 522 -61 790
-61 432 1 754 53 1050 172 599 240 940 710 1011 1395 15 149 6 560 -15 702
-68 448 -216 729 -553 1044 -330 308 -734 484 -1263 550 -167 21 -692 17 -925
-6 -112 -12 -270 -20 -385 -20 -170 -1 -199 1 -228 17 -92 50 -82 238 16 315
84 66 187 105 502 191 220 60 341 100 511 170 472 194 766 476 834 799 19 89
19 270 0 371 -19 100 -74 260 -122 355 -146 290 -345 419 -743 482 -86 14
-210 18 -687 21 l-583 5 0 -104z"/>
<path d="M3350 10543 c-627 -34 -889 -187 -1019 -596 -48 -151 -64 -262 -58
-402 8 -182 51 -316 150 -469 218 -334 669 -590 1281 -727 72 -16 160 -39 196
-50 148 -48 265 -131 311 -221 45 -86 21 -213 -47 -248 -51 -26 -324 -19 -524
14 -348 57 -373 59 -650 59 -198 1 -292 -4 -373 -16 -536 -83 -955 -286 -1302
-632 -302 -301 -477 -603 -557 -960 -29 -130 -36 -445 -14 -615 48 -366 160
-676 329 -917 34 -48 118 -145 187 -214 295 -295 671 -471 1173 -547 83 -12
180 -17 377 -17 297 0 353 5 740 71 292 50 484 65 559 44 96 -26 131 -98 131
-266 0 -158 -32 -186 -237 -206 -157 -15 -923 10 -1328 43 -934 76 -1612 281
-2010 609 -83 69 -144 132 -248 256 -84 101 -124 138 -175 163 -32 15 -35 15
-49 -4 -80 -106 232 -934 578 -1537 586 -1020 1449 -1877 2459 -2440 610 -341
1220 -556 1925 -679 223 -39 520 -52 572 -26 62 33 86 150 59 286 -38 189
-155 504 -329 886 -157 347 -239 588 -289 855 -31 163 -31 440 0 551 27 100
70 183 132 258 145 175 139 206 -78 352 -319 216 -423 341 -517 623 -138 412
-188 1057 -230 2981 -7 313 -65 3614 -65 3693 l0 52 -502 -2 c-277 -1 -528 -3
-558 -5z"/>
</g>
</svg>
