<?xml version="1.0" standalone="no"?>
<svg version="1.0" xmlns="http://www.w3.org/2000/svg" width="530.000000pt" height="500.000000pt"
    viewBox="0 0 530.000000 500.000000" preserveAspectRatio="xMidYMid meet">

    <g transform="translate(0.000000,500.000000) scale(0.100000,-0.100000)" fill="black" stroke="none">
        <path d="M160 4898 c-52 -36 -73 -71 -78 -132 -3 -43 0 -62 18 -94 27 -48 56
-65 235 -135 77 -30 228 -90 335 -132 107 -42 200 -82 207 -88 6 -7 29 -64 51
-127 22 -63 212 -612 423 -1218 l382 -1104 -29 -23 c-17 -13 -38 -41 -47 -62
-48 -111 -257 -712 -257 -741 0 -91 64 -142 180 -142 l72 0 -16 -22 c-9 -13
-32 -54 -51 -93 -121 -245 -12 -542 242 -663 71 -33 87 -37 180 -40 123 -5
207 16 298 76 70 46 111 87 154 157 94 149 95 370 3 515 -15 25 -31 51 -36 58
-6 9 100 12 518 12 l525 0 -34 -50 c-124 -184 -108 -437 39 -607 161 -186 458
-218 665 -73 217 152 273 455 126 677 l-35 53 86 0 c97 0 148 20 177 70 23 38
22 107 -3 147 -41 67 60 63 -1414 63 l-1335 0 40 113 c22 61 56 155 75 207
l34 95 1273 0 1274 0 34 27 c19 14 43 43 52 65 31 71 707 2193 707 2220 0 44
-38 110 -78 135 l-37 23 -1894 5 -1894 5 -77 220 c-84 241 -87 250 -122 282
-12 12 -207 94 -432 182 -447 176 -472 182 -536 139z m2290 -1348 l0 -180
-440 0 c-242 0 -440 1 -440 3 0 1 -27 80 -60 175 -33 95 -60 175 -60 178 0 2
225 4 500 4 l500 0 0 -180z m1090 0 l0 -180 -375 0 -375 0 0 180 0 180 375 0
375 0 0 -180z m1280 172 c0 -5 -25 -86 -55 -180 l-56 -172 -414 0 -415 0 0
180 0 180 470 0 c259 0 470 -4 470 -8z m-2370 -902 l0 -210 -308 0 -307 0 -70
202 c-39 111 -71 205 -73 210 -2 4 168 8 377 8 l381 0 0 -210z m1090 0 l0
-210 -375 0 -375 0 0 210 0 210 375 0 375 0 0 -210z m1057 198 c-2 -7 -33
-102 -67 -210 l-64 -198 -293 0 -293 0 0 210 0 210 361 0 c285 0 360 -3 356
-12z m-2147 -918 l0 -170 -189 0 -189 0 -12 33 c-41 116 -100 291 -100 298 0
5 110 9 245 9 l245 0 0 -170z m1090 0 l0 -170 -375 0 -375 0 0 170 0 170 375
0 375 0 0 -170z m805 130 c-8 -23 -33 -99 -55 -170 l-41 -130 -184 0 -185 0 0
170 0 170 240 0 239 0 -14 -40z m-2244 -1451 c83 -28 149 -118 149 -204 0 -22
-11 -63 -24 -91 -75 -161 -299 -164 -383 -5 -87 166 79 359 258 300z m1812 0
c21 -5 53 -24 73 -41 121 -107 90 -300 -58 -362 -78 -33 -164 -14 -231 52
-156 152 2 411 216 351z" />
    </g>
</svg>